<?xml version="1.0" encoding="UTF-8"?>
<svg id="Layer_2" data-name="Layer 2" xmlns="http://www.w3.org/2000/svg" viewBox="0 0 771.46 840.95">
  <defs>
    <style>
      .cls-1 {
        fill: #444;
      }

      .cls-2 {
        fill: #444;
      }

      .cls-3 {
        fill: #444;
      }
    </style>
  </defs>
  <g id="Layer_1-2" data-name="Layer 1">
    <g>
      <path class="cls-1" d="m459.47,403.79c62.92-22.96,109.09-84.79,109.09-147.51,0-82.14-80.56-145.74-186.29-145.74h-247.52v4.42c24.33,2.65,40.28,17.64,40.28,54.76v499.97c0,37.12-15.95,52.12-40.28,54.79v4.42h245.01c129.21,0,218.99-68.04,218.99-163.44,0-71.56-50.34-129.84-139.28-161.67ZM227.88,122.01h151.88c76.36,0,135.92,59.18,135.92,143.09,0,71.56-42.79,133.39-152.69,133.39h-135.1V122.01Zm156.08,594.5h-156.08v-306.54h135.1c110.75,0,182.91,69.79,182.91,156.38s-70.5,150.16-161.94,150.16Z"/>
      <path class="cls-2" d="m680.16,784.55h-59.22v54.87h112.56v-88.69h-53.34v33.82ZM0,0v839.42h107.88v-54.87h-54.54V54.84h626.81v33.87h53.34V0H0Z"/>
      <path class="cls-2" d="m459.47,403.79c62.92-22.96,109.09-84.79,109.09-147.51,0-82.14-80.56-145.74-186.29-145.74h-247.52v4.42c4.56.5,8.83,1.43,12.75,2.86,2.62.95,5.08,2.13,7.37,3.54,2.29,1.42,4.42,3.07,6.36,4.99,1.94,1.92,3.7,4.09,5.27,6.54,1.56,2.45,2.93,5.19,4.08,8.22,2.88,7.58,4.44,17.02,4.44,28.62v499.97c0,11.6-1.56,21.04-4.44,28.62-1.15,3.03-2.52,5.76-4.08,8.22-1.56,2.45-3.32,4.63-5.27,6.55-1.94,1.92-4.07,3.57-6.36,4.99-2.29,1.42-4.76,2.59-7.37,3.55-3.92,1.43-8.19,2.37-12.75,2.87v4.42h245.01c129.21,0,218.99-68.04,218.99-163.44,0-71.56-50.34-129.84-139.28-161.67Zm-79.72-281.77c76.36,0,135.92,59.18,135.92,143.1,0,71.56-42.79,133.39-152.69,133.39h-135.1v-245.27c2.54-15.21,8.83-25.21,17.9-31.21h133.97Zm4.2,594.5h-139.44c-8.39-6.08-14.21-15.84-16.64-30.34v-276.19h135.1c110.75,0,182.91,69.79,182.91,156.38s-70.5,150.16-161.94,150.16Z"/>

      <g>
        <path class="cls-2" d="m231.13,784.37c-15.99,0-26.72,11.34-26.72,28.22s11.11,28.36,27.02,28.36,27.02-11.63,27.02-28.29-11.23-28.29-27.31-28.29Zm-19.1,28.06c0-11.93,6.36-24.01,18.53-24.01s20.27,12.82,20.27,24.69-7.28,23.78-19.47,23.78-19.32-12.6-19.32-24.46Z"/>
        <path class="cls-2" d="m162.2,787.71l1.41.11c.65.05,1.86.14,1.99,2.66v17.3h-23.08v-16.77c0-3.05,1.29-3.14,1.98-3.19l1.42-.1v-3.34h-14.57v3.34l1.42.1c.67.05,2.06.15,2.06,3.19v43.15c0,3.05-1.39,3.15-2.06,3.2l-1.42.48v2.95h13.04l1.53-.38v-2.95l-1.42-.1c-.69-.05-1.98-.14-1.98-3.2v-22.25h23.08v22.78c-.12,2.22-1.02,2.6-1.99,2.67l-1.41.49v2.95h12.9l1.53-.38v-2.95l-1.42-.1c-.69-.05-1.98-.14-1.98-3.2v-43.15c0-3.05,1.29-3.14,1.98-3.19l1.42-.1v-3.34h-14.43v3.33Z"/>
        <path class="cls-2" d="m320.53,827.57c-1.26,4.42-5.76,9.18-12.65,9.18h-10.56v-45.74c0-3.05,1.29-3.14,1.98-3.19l1.42-.1v-3.34h-14.57v3.34l1.42.1c.67.05,2.06.15,2.06,3.19v43.15c0,3.05-1.39,3.15-2.06,3.2l-1.42.48v2.95h35.49l3.25-14.58-4.07.33-.29,1.02Z"/>
        <path class="cls-2" d="m509.59,787.67l1.37.15c1.03.11,2.03.45,2.03,3.2l.07,36.47-34.29-43.11h-9.22v3.29l1.37.15c1.02.11,2.11.46,2.11,3.2v43.15c0,3.05-1.39,3.15-2.06,3.2l-1.42.48v2.95h9.43l1.53-.38v-2.95l-1.42-.1c-.69-.05-1.99-.14-1.99-3.2v-39.67l36.3,45.73.46.58h3.21v-49.79c0-2.75,1-3.09,2.03-3.2l1.37-.15v-3.29h-10.88v3.29Z"/>
        <path class="cls-2" d="m589.68,811.21l-1.53.38v2.95l1.42.1c.69.05,1.99.14,1.99,3.2v7.46c-3.51,8.06-10.78,11.67-16.5,11.67-10.4,0-19.18-11.34-19.18-24.77s8.51-24.08,18.96-24.08c7.58,0,16.31,5.77,18.33,16.81l.23,1.26h3.84l-.09-8.64-.1-.51c-2.81-7.64-11.83-12.97-21.93-12.97-15.36,0-26.95,12.23-26.95,28.44s11.58,28.44,26.95,28.44c7.22,0,14.04-2.73,18.29-7.22l5.83,7.18v-23.07c0-3.05,1.29-3.15,1.98-3.2l1.42-.49v-2.95h-12.97Z"/>
        <path class="cls-2" d="m427.34,787.71l1.42.11c.94.07,1.87.34,1.99,2.66v44.21c-.12,2.34-1.04,2.6-1.99,2.67l-1.42.49v2.95h12.97l1.53-.38v-2.95l-1.42-.1c-.69-.05-1.99-.14-1.99-3.2v-43.15c0-3.05,1.29-3.14,1.99-3.19l1.42-.1v-3.34h-14.5v3.34Z"/>
        <path class="cls-2" d="m368.63,784.37h-16.45v3.29l1.37.15c1.02.11,2.11.46,2.11,3.2v43.15c0,3.05-1.39,3.15-2.06,3.2l-1.42.48v2.95h16.45c18.25,0,31-11.82,31-28.75s-12.17-27.68-31-27.68Zm-5.28,52.28v-48.15h4.19c14.59,0,24.39,9.43,24.39,23.48s-9.81,24.4-24.41,24.62l-4.17.06Z"/>
      </g>
    </g>
  </g>
</svg>